<svg xmlns="http://www.w3.org/2000/svg" xmlns:xlink="http://www.w3.org/1999/xlink" width="512" zoomAndPan="magnify" viewBox="0 0 384 383.999986" height="512" preserveAspectRatio="xMidYMid meet" version="1.0"><defs><g/><clipPath id="714f9187c5"><path d="M 102 125 L 297.6875 125 L 297.6875 282 L 102 282 Z M 102 125 " clip-rule="nonzero"/></clipPath><clipPath id="1e81cd3d3f"><path d="M 148 78.046875 L 252 78.046875 L 252 126 L 148 126 Z M 148 78.046875 " clip-rule="nonzero"/></clipPath></defs><g clip-path="url(#714f9187c5)"><path fill="#8c52ff" d="M 150.445312 281.707031 L 287.457031 281.707031 C 292.679688 281.707031 297.625 277.308594 297.007812 272.085938 L 280.242188 135.144531 C 279.625 130.058594 275.914062 125.59375 270.691406 125.59375 L 255.507812 125.59375 C 255.574219 126.898438 255.644531 128.273438 255.644531 129.648438 C 255.644531 160.5 230.632812 185.511719 199.78125 185.511719 C 168.929688 185.511719 143.917969 160.5 143.917969 129.648438 C 143.917969 128.273438 143.917969 126.898438 144.058594 125.59375 L 128.871094 125.59375 C 123.582031 125.59375 119.9375 130.058594 119.320312 135.144531 L 102.554688 272.085938 C 101.9375 277.308594 106.816406 281.707031 112.105469 281.707031 Z M 150.445312 281.707031 " fill-opacity="1" fill-rule="evenodd"/></g><g clip-path="url(#1e81cd3d3f)"><path fill="#8c52ff" d="M 199.78125 78.046875 C 226.921875 78.046875 249.117188 99.003906 251.179688 125.59375 L 237.777344 125.59375 C 235.71875 106.421875 219.503906 91.445312 199.78125 91.445312 C 180.0625 91.445312 163.777344 106.421875 161.785156 125.59375 L 148.386719 125.59375 C 150.378906 99.003906 172.640625 78.046875 199.78125 78.046875 Z M 199.78125 78.046875 " fill-opacity="1" fill-rule="evenodd"/></g><g fill="#000000" fill-opacity="1"><g transform="translate(2.76591, 273.751887)"><g><path d="M 79.921875 0 L 54.390625 0 L 24.4375 -34.484375 L 24.4375 0 L 5.90625 0 L 5.90625 -81.296875 L 24.4375 -81.296875 L 24.4375 -48.09375 L 52.328125 -81.296875 L 74.796875 -81.296875 L 42.078125 -42.765625 Z M 79.921875 0 "/></g></g></g><g fill="#000000" fill-opacity="1"><g transform="translate(80.310162, 273.751887)"><g><path d="M 2.859375 -48 L 2.859375 -66.328125 L 26.015625 -81.296875 L 34.78125 -81.296875 L 34.78125 0 L 16.265625 0 L 16.265625 -56.671875 Z M 2.859375 -48 "/></g></g></g><g fill="#000000" fill-opacity="1"><g transform="translate(121.003641, 273.751887)"><g><path d="M 41.296875 -81.296875 L 41.296875 -22.96875 C 41.296875 -15.007812 39.109375 -8.941406 34.734375 -4.765625 C 30.367188 -0.597656 24.113281 1.484375 15.96875 1.484375 C 13.800781 1.484375 11.664062 1.21875 9.5625 0.6875 C 7.457031 0.164062 5.679688 -0.46875 4.234375 -1.21875 C 2.785156 -1.976562 1.488281 -2.753906 0.34375 -3.546875 C -0.800781 -4.335938 -1.640625 -4.992188 -2.171875 -5.515625 L -3.0625 -6.3125 L 2.859375 -21.78125 C 6.734375 -18.101562 10.25 -16.265625 13.40625 -16.265625 C 16.226562 -16.265625 18.492188 -17.195312 20.203125 -19.0625 C 21.910156 -20.9375 22.765625 -23.8125 22.765625 -27.6875 L 22.765625 -81.296875 Z M 41.296875 -81.296875 "/></g></g></g><g fill="#000000" fill-opacity="1"><g transform="translate(167.214889, 273.751887)"><g/></g></g><g fill="#000000" fill-opacity="1"><g transform="translate(194.11397, 273.751887)"><g><path d="M 24.4375 -81.296875 L 24.4375 -16.265625 L 52.421875 -16.265625 L 52.421875 0 L 5.90625 0 L 5.90625 -81.296875 Z M 24.4375 -81.296875 "/></g></g></g><g fill="#000000" fill-opacity="1"><g transform="translate(249.784237, 273.751887)"><g><path d="M 0.78125 -65.046875 L 0.78125 -81.296875 L 57.953125 -81.296875 L 57.953125 -65.046875 L 38.625 -65.046875 L 38.625 0 L 20.109375 0 L 20.109375 -65.046875 Z M 0.78125 -65.046875 "/></g></g></g><g fill="#000000" fill-opacity="1"><g transform="translate(308.508966, 273.751887)"><g><path d="M 5.90625 -81.296875 L 29.46875 -81.296875 C 40.769531 -81.296875 50.425781 -77.4375 58.4375 -69.71875 C 66.457031 -62 70.46875 -52.328125 70.46875 -40.703125 C 70.46875 -29.003906 66.472656 -19.296875 58.484375 -11.578125 C 50.503906 -3.859375 40.832031 0 29.46875 0 L 5.90625 0 Z M 24.4375 -16.5625 L 27.296875 -16.5625 C 34.066406 -16.5625 39.601562 -18.84375 43.90625 -23.40625 C 48.207031 -27.96875 50.390625 -33.695312 50.453125 -40.59375 C 50.453125 -47.5 48.300781 -53.25 44 -57.84375 C 39.695312 -62.445312 34.128906 -64.75 27.296875 -64.75 L 24.4375 -64.75 Z M 24.4375 -16.5625 "/></g></g></g><g fill="#000000" fill-opacity="1"><g transform="translate(124.800195, 301.393917)"><g><path d="M 1.578125 0 L 1.578125 -10.84375 L 8.171875 -10.84375 L 8.171875 -9.578125 L 2.9375 -9.578125 L 2.9375 -6.15625 L 7.78125 -6.15625 L 7.78125 -4.890625 L 2.9375 -4.890625 L 2.9375 -1.265625 L 8.34375 -1.265625 L 8.34375 0 Z M 1.578125 0 "/></g></g></g><g fill="#000000" fill-opacity="1"><g transform="translate(138.315307, 301.393917)"><g><path d="M 1.1875 -3.3125 L 1.1875 -4.546875 L 5.921875 -4.546875 L 5.921875 -3.3125 Z M 1.1875 -3.3125 "/></g></g></g><g fill="#000000" fill-opacity="1"><g transform="translate(149.598708, 301.393917)"><g><path d="M 6.390625 0.203125 C 5.585938 0.203125 4.847656 0.0625 4.171875 -0.21875 C 3.503906 -0.5 2.925781 -0.890625 2.4375 -1.390625 C 1.945312 -1.890625 1.566406 -2.484375 1.296875 -3.171875 C 1.035156 -3.859375 0.90625 -4.609375 0.90625 -5.421875 C 0.90625 -6.242188 1.035156 -7 1.296875 -7.6875 C 1.566406 -8.375 1.945312 -8.96875 2.4375 -9.46875 C 2.925781 -9.96875 3.503906 -10.351562 4.171875 -10.625 C 4.847656 -10.90625 5.585938 -11.046875 6.390625 -11.046875 C 7.242188 -11.046875 8.03125 -10.890625 8.75 -10.578125 C 9.46875 -10.265625 10.082031 -9.816406 10.59375 -9.234375 C 11.101562 -8.648438 11.476562 -7.957031 11.71875 -7.15625 L 10.265625 -7.15625 C 9.984375 -7.945312 9.5 -8.566406 8.8125 -9.015625 C 8.125 -9.460938 7.332031 -9.6875 6.4375 -9.6875 C 5.625 -9.6875 4.90625 -9.503906 4.28125 -9.140625 C 3.664062 -8.785156 3.179688 -8.285156 2.828125 -7.640625 C 2.472656 -7.003906 2.296875 -6.265625 2.296875 -5.421875 C 2.296875 -4.585938 2.472656 -3.847656 2.828125 -3.203125 C 3.179688 -2.566406 3.664062 -2.066406 4.28125 -1.703125 C 4.90625 -1.335938 5.625 -1.15625 6.4375 -1.15625 C 7.351562 -1.15625 8.164062 -1.394531 8.875 -1.875 C 9.59375 -2.351562 10.09375 -3 10.375 -3.8125 L 11.8125 -3.8125 C 11.59375 -3.007812 11.222656 -2.304688 10.703125 -1.703125 C 10.179688 -1.109375 9.550781 -0.640625 8.8125 -0.296875 C 8.070312 0.0351562 7.265625 0.203125 6.390625 0.203125 Z M 6.390625 0.203125 "/></g></g></g><g fill="#000000" fill-opacity="1"><g transform="translate(166.414892, 301.393917)"><g><path d="M 6.515625 0.203125 C 5.410156 0.203125 4.4375 -0.0351562 3.59375 -0.515625 C 2.75 -0.992188 2.085938 -1.65625 1.609375 -2.5 C 1.140625 -3.351562 0.90625 -4.328125 0.90625 -5.421875 C 0.90625 -6.523438 1.140625 -7.5 1.609375 -8.34375 C 2.085938 -9.1875 2.75 -9.847656 3.59375 -10.328125 C 4.4375 -10.804688 5.410156 -11.046875 6.515625 -11.046875 C 7.617188 -11.046875 8.585938 -10.804688 9.421875 -10.328125 C 10.265625 -9.847656 10.925781 -9.1875 11.40625 -8.34375 C 11.894531 -7.5 12.140625 -6.523438 12.140625 -5.421875 C 12.140625 -4.328125 11.894531 -3.351562 11.40625 -2.5 C 10.925781 -1.65625 10.265625 -0.992188 9.421875 -0.515625 C 8.585938 -0.0351562 7.617188 0.203125 6.515625 0.203125 Z M 2.296875 -5.421875 C 2.296875 -4.585938 2.472656 -3.847656 2.828125 -3.203125 C 3.179688 -2.566406 3.675781 -2.066406 4.3125 -1.703125 C 4.945312 -1.335938 5.679688 -1.15625 6.515625 -1.15625 C 7.347656 -1.15625 8.078125 -1.335938 8.703125 -1.703125 C 9.335938 -2.066406 9.832031 -2.566406 10.1875 -3.203125 C 10.539062 -3.847656 10.71875 -4.585938 10.71875 -5.421875 C 10.71875 -6.273438 10.539062 -7.019531 10.1875 -7.65625 C 9.832031 -8.289062 9.335938 -8.785156 8.703125 -9.140625 C 8.078125 -9.503906 7.347656 -9.6875 6.515625 -9.6875 C 5.679688 -9.6875 4.945312 -9.503906 4.3125 -9.140625 C 3.675781 -8.785156 3.179688 -8.289062 2.828125 -7.65625 C 2.472656 -7.019531 2.296875 -6.273438 2.296875 -5.421875 Z M 2.296875 -5.421875 "/></g></g></g><g fill="#000000" fill-opacity="1"><g transform="translate(183.603029, 301.393917)"><g><path d="M 1.578125 0 L 1.578125 -10.84375 L 2.859375 -10.84375 L 7.109375 -4.421875 L 11.34375 -10.84375 L 12.609375 -10.84375 L 12.609375 0 L 11.25 0 L 11.25 -8.296875 L 7.65625 -2.890625 L 6.546875 -2.890625 L 2.9375 -8.3125 L 2.9375 0 Z M 1.578125 0 "/></g></g></g><g fill="#000000" fill-opacity="1"><g transform="translate(201.969021, 301.393917)"><g><path d="M 1.578125 0 L 1.578125 -10.84375 L 2.859375 -10.84375 L 7.109375 -4.421875 L 11.34375 -10.84375 L 12.609375 -10.84375 L 12.609375 0 L 11.25 0 L 11.25 -8.296875 L 7.65625 -2.890625 L 6.546875 -2.890625 L 2.9375 -8.3125 L 2.9375 0 Z M 1.578125 0 "/></g></g></g><g fill="#000000" fill-opacity="1"><g transform="translate(220.33501, 301.393917)"><g><path d="M 1.578125 0 L 1.578125 -10.84375 L 8.171875 -10.84375 L 8.171875 -9.578125 L 2.9375 -9.578125 L 2.9375 -6.15625 L 7.78125 -6.15625 L 7.78125 -4.890625 L 2.9375 -4.890625 L 2.9375 -1.265625 L 8.34375 -1.265625 L 8.34375 0 Z M 1.578125 0 "/></g></g></g><g fill="#000000" fill-opacity="1"><g transform="translate(233.850118, 301.393917)"><g><path d="M 1.578125 0 L 1.578125 -10.84375 L 5.71875 -10.84375 C 6.46875 -10.84375 7.125 -10.703125 7.6875 -10.421875 C 8.25 -10.140625 8.679688 -9.738281 8.984375 -9.21875 C 9.296875 -8.707031 9.453125 -8.085938 9.453125 -7.359375 C 9.453125 -6.484375 9.222656 -5.757812 8.765625 -5.1875 C 8.316406 -4.613281 7.691406 -4.226562 6.890625 -4.03125 L 9.625 0 L 7.984375 0 L 5.328125 -3.890625 L 2.9375 -3.890625 L 2.9375 0 Z M 2.9375 -5.1875 L 5.5625 -5.1875 C 6.363281 -5.1875 6.976562 -5.375 7.40625 -5.75 C 7.84375 -6.132812 8.0625 -6.671875 8.0625 -7.359375 C 8.0625 -8.054688 7.84375 -8.59375 7.40625 -8.96875 C 6.976562 -9.351562 6.363281 -9.546875 5.5625 -9.546875 L 2.9375 -9.546875 Z M 2.9375 -5.1875 "/></g></g></g><g fill="#000000" fill-opacity="1"><g transform="translate(248.574066, 301.393917)"><g><path d="M 6.390625 0.203125 C 5.585938 0.203125 4.847656 0.0625 4.171875 -0.21875 C 3.503906 -0.5 2.925781 -0.890625 2.4375 -1.390625 C 1.945312 -1.890625 1.566406 -2.484375 1.296875 -3.171875 C 1.035156 -3.859375 0.90625 -4.609375 0.90625 -5.421875 C 0.90625 -6.242188 1.035156 -7 1.296875 -7.6875 C 1.566406 -8.375 1.945312 -8.96875 2.4375 -9.46875 C 2.925781 -9.96875 3.503906 -10.351562 4.171875 -10.625 C 4.847656 -10.90625 5.585938 -11.046875 6.390625 -11.046875 C 7.242188 -11.046875 8.03125 -10.890625 8.75 -10.578125 C 9.46875 -10.265625 10.082031 -9.816406 10.59375 -9.234375 C 11.101562 -8.648438 11.476562 -7.957031 11.71875 -7.15625 L 10.265625 -7.15625 C 9.984375 -7.945312 9.5 -8.566406 8.8125 -9.015625 C 8.125 -9.460938 7.332031 -9.6875 6.4375 -9.6875 C 5.625 -9.6875 4.90625 -9.503906 4.28125 -9.140625 C 3.664062 -8.785156 3.179688 -8.285156 2.828125 -7.640625 C 2.472656 -7.003906 2.296875 -6.265625 2.296875 -5.421875 C 2.296875 -4.585938 2.472656 -3.847656 2.828125 -3.203125 C 3.179688 -2.566406 3.664062 -2.066406 4.28125 -1.703125 C 4.90625 -1.335938 5.625 -1.15625 6.4375 -1.15625 C 7.351562 -1.15625 8.164062 -1.394531 8.875 -1.875 C 9.59375 -2.351562 10.09375 -3 10.375 -3.8125 L 11.8125 -3.8125 C 11.59375 -3.007812 11.222656 -2.304688 10.703125 -1.703125 C 10.179688 -1.109375 9.550781 -0.640625 8.8125 -0.296875 C 8.070312 0.0351562 7.265625 0.203125 6.390625 0.203125 Z M 6.390625 0.203125 "/></g></g></g><g fill="#000000" fill-opacity="1"><g transform="translate(265.390255, 301.393917)"><g><path d="M 1.578125 0 L 1.578125 -10.84375 L 8.171875 -10.84375 L 8.171875 -9.578125 L 2.9375 -9.578125 L 2.9375 -6.15625 L 7.78125 -6.15625 L 7.78125 -4.890625 L 2.9375 -4.890625 L 2.9375 -1.265625 L 8.34375 -1.265625 L 8.34375 0 Z M 1.578125 0 "/></g></g></g></svg>