<svg xmlns="http://www.w3.org/2000/svg" xmlns:xlink="http://www.w3.org/1999/xlink" width="512" zoomAndPan="magnify" viewBox="0 0 384 383.999986" height="512" preserveAspectRatio="xMidYMid meet" version="1.0"><defs><g/><clipPath id="26b9b23acf"><path d="M 124.078125 141 L 271.828125 141 L 271.828125 259.691406 L 124.078125 259.691406 Z M 124.078125 141 " clip-rule="nonzero"/></clipPath><clipPath id="d031a1c36a"><path d="M 159 105.941406 L 237 105.941406 L 237 142 L 159 142 Z M 159 105.941406 " clip-rule="nonzero"/></clipPath></defs><g clip-path="url(#26b9b23acf)"><path fill="#8c52ff" d="M 160.664062 259.539062 L 263.992188 259.539062 C 267.933594 259.539062 271.664062 256.222656 271.195312 252.285156 L 258.550781 149.003906 C 258.085938 145.171875 255.289062 141.800781 251.347656 141.800781 L 239.898438 141.800781 C 239.949219 142.789062 240 143.824219 240 144.859375 C 240 168.128906 221.136719 186.992188 197.871094 186.992188 C 174.601562 186.992188 155.738281 168.128906 155.738281 144.859375 C 155.738281 143.824219 155.738281 142.789062 155.84375 141.800781 L 144.390625 141.800781 C 140.402344 141.800781 137.65625 145.171875 137.1875 149.003906 L 124.542969 252.285156 C 124.078125 256.222656 127.757812 259.539062 131.746094 259.539062 Z M 160.664062 259.539062 " fill-opacity="1" fill-rule="evenodd"/></g><g clip-path="url(#d031a1c36a)"><path fill="#8c52ff" d="M 197.871094 105.941406 C 218.339844 105.941406 235.078125 121.746094 236.632812 141.800781 L 226.527344 141.800781 C 224.972656 127.34375 212.742188 116.046875 197.871094 116.046875 C 182.996094 116.046875 170.714844 127.34375 169.214844 141.800781 L 159.109375 141.800781 C 160.609375 121.746094 177.402344 105.941406 197.871094 105.941406 Z M 197.871094 105.941406 " fill-opacity="1" fill-rule="evenodd"/></g><g fill="#ffffff" fill-opacity="1"><g transform="translate(49.286916, 253.536074)"><g><path d="M 60.265625 0 L 41.015625 0 L 18.421875 -26.015625 L 18.421875 0 L 4.453125 0 L 4.453125 -61.3125 L 18.421875 -61.3125 L 18.421875 -36.265625 L 39.453125 -61.3125 L 56.40625 -61.3125 L 31.734375 -32.25 Z M 60.265625 0 "/></g></g></g><g fill="#ffffff" fill-opacity="1"><g transform="translate(107.767811, 253.536074)"><g><path d="M 2.15625 -36.1875 L 2.15625 -50.015625 L 19.625 -61.3125 L 26.234375 -61.3125 L 26.234375 0 L 12.265625 0 L 12.265625 -42.734375 Z M 2.15625 -36.1875 "/></g></g></g><g fill="#ffffff" fill-opacity="1"><g transform="translate(138.457269, 253.536074)"><g><path d="M 31.140625 -61.3125 L 31.140625 -17.3125 C 31.140625 -11.320312 29.488281 -6.753906 26.1875 -3.609375 C 22.894531 -0.460938 18.175781 1.109375 12.03125 1.109375 C 10.40625 1.109375 8.796875 0.910156 7.203125 0.515625 C 5.617188 0.117188 4.28125 -0.359375 3.1875 -0.921875 C 2.101562 -1.492188 1.125 -2.078125 0.25 -2.671875 C -0.613281 -3.265625 -1.242188 -3.757812 -1.640625 -4.15625 L -2.296875 -4.75 L 2.15625 -16.421875 C 5.082031 -13.648438 7.734375 -12.265625 10.109375 -12.265625 C 12.234375 -12.265625 13.941406 -12.96875 15.234375 -14.375 C 16.523438 -15.789062 17.171875 -17.957031 17.171875 -20.875 L 17.171875 -61.3125 Z M 31.140625 -61.3125 "/></g></g></g><g fill="#ffffff" fill-opacity="1"><g transform="translate(173.308017, 253.536074)"><g/></g></g><g fill="#ffffff" fill-opacity="1"><g transform="translate(193.59427, 253.536074)"><g><path d="M 18.421875 -61.3125 L 18.421875 -12.265625 L 39.53125 -12.265625 L 39.53125 0 L 4.453125 0 L 4.453125 -61.3125 Z M 18.421875 -61.3125 "/></g></g></g><g fill="#ffffff" fill-opacity="1"><g transform="translate(235.578646, 253.536074)"><g><path d="M 0.59375 -49.046875 L 0.59375 -61.3125 L 43.703125 -61.3125 L 43.703125 -49.046875 L 29.125 -49.046875 L 29.125 0 L 15.15625 0 L 15.15625 -49.046875 Z M 0.59375 -49.046875 "/></g></g></g><g fill="#ffffff" fill-opacity="1"><g transform="translate(279.86658, 253.536074)"><g><path d="M 4.453125 -61.3125 L 22.21875 -61.3125 C 30.738281 -61.3125 38.019531 -58.398438 44.0625 -52.578125 C 50.113281 -46.753906 53.140625 -39.457031 53.140625 -30.6875 C 53.140625 -21.875 50.128906 -14.554688 44.109375 -8.734375 C 38.085938 -2.910156 30.789062 0 22.21875 0 L 4.453125 0 Z M 18.421875 -12.484375 L 20.578125 -12.484375 C 25.679688 -12.484375 29.851562 -14.203125 33.09375 -17.640625 C 36.34375 -21.085938 37.992188 -25.410156 38.046875 -30.609375 C 38.046875 -35.816406 36.421875 -40.15625 33.171875 -43.625 C 29.929688 -47.09375 25.734375 -48.828125 20.578125 -48.828125 L 18.421875 -48.828125 Z M 18.421875 -12.484375 "/></g></g></g><g fill="#ffffff" fill-opacity="1"><g transform="translate(141.320487, 274.382645)"><g><path d="M 1.1875 0 L 1.1875 -8.1875 L 6.15625 -8.1875 L 6.15625 -7.21875 L 2.21875 -7.21875 L 2.21875 -4.640625 L 5.859375 -4.640625 L 5.859375 -3.6875 L 2.21875 -3.6875 L 2.21875 -0.953125 L 6.28125 -0.953125 L 6.28125 0 Z M 1.1875 0 "/></g></g></g><g fill="#ffffff" fill-opacity="1"><g transform="translate(151.513065, 274.382645)"><g><path d="M 0.90625 -2.5 L 0.90625 -3.421875 L 4.46875 -3.421875 L 4.46875 -2.5 Z M 0.90625 -2.5 "/></g></g></g><g fill="#ffffff" fill-opacity="1"><g transform="translate(160.022572, 274.382645)"><g><path d="M 4.8125 0.15625 C 4.21875 0.15625 3.664062 0.0507812 3.15625 -0.15625 C 2.644531 -0.375 2.203125 -0.671875 1.828125 -1.046875 C 1.460938 -1.421875 1.175781 -1.867188 0.96875 -2.390625 C 0.769531 -2.910156 0.671875 -3.476562 0.671875 -4.09375 C 0.671875 -4.707031 0.769531 -5.269531 0.96875 -5.78125 C 1.175781 -6.300781 1.460938 -6.75 1.828125 -7.125 C 2.203125 -7.507812 2.644531 -7.804688 3.15625 -8.015625 C 3.664062 -8.222656 4.21875 -8.328125 4.8125 -8.328125 C 5.457031 -8.328125 6.050781 -8.207031 6.59375 -7.96875 C 7.132812 -7.738281 7.597656 -7.398438 7.984375 -6.953125 C 8.367188 -6.515625 8.648438 -6 8.828125 -5.40625 L 7.734375 -5.40625 C 7.523438 -5.988281 7.160156 -6.453125 6.640625 -6.796875 C 6.117188 -7.140625 5.519531 -7.3125 4.84375 -7.3125 C 4.238281 -7.3125 3.703125 -7.171875 3.234375 -6.890625 C 2.765625 -6.617188 2.394531 -6.238281 2.125 -5.75 C 1.863281 -5.269531 1.734375 -4.71875 1.734375 -4.09375 C 1.734375 -3.457031 1.863281 -2.894531 2.125 -2.40625 C 2.394531 -1.925781 2.765625 -1.550781 3.234375 -1.28125 C 3.703125 -1.007812 4.238281 -0.875 4.84375 -0.875 C 5.539062 -0.875 6.15625 -1.050781 6.6875 -1.40625 C 7.226562 -1.769531 7.601562 -2.257812 7.8125 -2.875 L 8.90625 -2.875 C 8.738281 -2.269531 8.457031 -1.738281 8.0625 -1.28125 C 7.675781 -0.832031 7.203125 -0.476562 6.640625 -0.21875 C 6.085938 0.03125 5.476562 0.15625 4.8125 0.15625 Z M 4.8125 0.15625 "/></g></g></g><g fill="#ffffff" fill-opacity="1"><g transform="translate(172.704692, 274.382645)"><g><path d="M 4.90625 0.15625 C 4.082031 0.15625 3.347656 -0.0234375 2.703125 -0.390625 C 2.066406 -0.753906 1.566406 -1.253906 1.203125 -1.890625 C 0.847656 -2.535156 0.671875 -3.269531 0.671875 -4.09375 C 0.671875 -4.925781 0.847656 -5.660156 1.203125 -6.296875 C 1.566406 -6.929688 2.066406 -7.425781 2.703125 -7.78125 C 3.347656 -8.144531 4.082031 -8.328125 4.90625 -8.328125 C 5.738281 -8.328125 6.472656 -8.144531 7.109375 -7.78125 C 7.742188 -7.425781 8.242188 -6.929688 8.609375 -6.296875 C 8.972656 -5.660156 9.15625 -4.925781 9.15625 -4.09375 C 9.15625 -3.269531 8.972656 -2.535156 8.609375 -1.890625 C 8.242188 -1.253906 7.742188 -0.753906 7.109375 -0.390625 C 6.472656 -0.0234375 5.738281 0.15625 4.90625 0.15625 Z M 1.734375 -4.09375 C 1.734375 -3.457031 1.863281 -2.894531 2.125 -2.40625 C 2.394531 -1.925781 2.769531 -1.550781 3.25 -1.28125 C 3.726562 -1.007812 4.28125 -0.875 4.90625 -0.875 C 5.539062 -0.875 6.09375 -1.007812 6.5625 -1.28125 C 7.039062 -1.550781 7.414062 -1.925781 7.6875 -2.40625 C 7.957031 -2.894531 8.09375 -3.457031 8.09375 -4.09375 C 8.09375 -4.726562 7.957031 -5.285156 7.6875 -5.765625 C 7.414062 -6.242188 7.039062 -6.617188 6.5625 -6.890625 C 6.09375 -7.171875 5.539062 -7.3125 4.90625 -7.3125 C 4.28125 -7.3125 3.726562 -7.171875 3.25 -6.890625 C 2.769531 -6.617188 2.394531 -6.242188 2.125 -5.765625 C 1.863281 -5.285156 1.734375 -4.726562 1.734375 -4.09375 Z M 1.734375 -4.09375 "/></g></g></g><g fill="#ffffff" fill-opacity="1"><g transform="translate(185.667324, 274.382645)"><g><path d="M 1.1875 0 L 1.1875 -8.1875 L 2.15625 -8.1875 L 5.359375 -3.328125 L 8.5625 -8.1875 L 9.515625 -8.1875 L 9.515625 0 L 8.484375 0 L 8.484375 -6.25 L 5.78125 -2.171875 L 4.9375 -2.171875 L 2.21875 -6.265625 L 2.21875 0 Z M 1.1875 0 "/></g></g></g><g fill="#ffffff" fill-opacity="1"><g transform="translate(199.51825, 274.382645)"><g><path d="M 1.1875 0 L 1.1875 -8.1875 L 2.15625 -8.1875 L 5.359375 -3.328125 L 8.5625 -8.1875 L 9.515625 -8.1875 L 9.515625 0 L 8.484375 0 L 8.484375 -6.25 L 5.78125 -2.171875 L 4.9375 -2.171875 L 2.21875 -6.265625 L 2.21875 0 Z M 1.1875 0 "/></g></g></g><g fill="#ffffff" fill-opacity="1"><g transform="translate(213.369173, 274.382645)"><g><path d="M 1.1875 0 L 1.1875 -8.1875 L 6.15625 -8.1875 L 6.15625 -7.21875 L 2.21875 -7.21875 L 2.21875 -4.640625 L 5.859375 -4.640625 L 5.859375 -3.6875 L 2.21875 -3.6875 L 2.21875 -0.953125 L 6.28125 -0.953125 L 6.28125 0 Z M 1.1875 0 "/></g></g></g><g fill="#ffffff" fill-opacity="1"><g transform="translate(223.561748, 274.382645)"><g><path d="M 1.1875 0 L 1.1875 -8.1875 L 4.3125 -8.1875 C 4.882812 -8.1875 5.378906 -8.078125 5.796875 -7.859375 C 6.210938 -7.640625 6.535156 -7.335938 6.765625 -6.953125 C 7.003906 -6.566406 7.125 -6.097656 7.125 -5.546875 C 7.125 -4.890625 6.953125 -4.34375 6.609375 -3.90625 C 6.265625 -3.476562 5.796875 -3.1875 5.203125 -3.03125 L 7.265625 0 L 6.015625 0 L 4.015625 -2.9375 L 2.21875 -2.9375 L 2.21875 0 Z M 2.21875 -3.921875 L 4.203125 -3.921875 C 4.796875 -3.921875 5.253906 -4.0625 5.578125 -4.34375 C 5.910156 -4.625 6.078125 -5.023438 6.078125 -5.546875 C 6.078125 -6.066406 5.910156 -6.472656 5.578125 -6.765625 C 5.253906 -7.054688 4.796875 -7.203125 4.203125 -7.203125 L 2.21875 -7.203125 Z M 2.21875 -3.921875 "/></g></g></g><g fill="#ffffff" fill-opacity="1"><g transform="translate(234.665984, 274.382645)"><g><path d="M 4.8125 0.15625 C 4.21875 0.15625 3.664062 0.0507812 3.15625 -0.15625 C 2.644531 -0.375 2.203125 -0.671875 1.828125 -1.046875 C 1.460938 -1.421875 1.175781 -1.867188 0.96875 -2.390625 C 0.769531 -2.910156 0.671875 -3.476562 0.671875 -4.09375 C 0.671875 -4.707031 0.769531 -5.269531 0.96875 -5.78125 C 1.175781 -6.300781 1.460938 -6.75 1.828125 -7.125 C 2.203125 -7.507812 2.644531 -7.804688 3.15625 -8.015625 C 3.664062 -8.222656 4.21875 -8.328125 4.8125 -8.328125 C 5.457031 -8.328125 6.050781 -8.207031 6.59375 -7.96875 C 7.132812 -7.738281 7.597656 -7.398438 7.984375 -6.953125 C 8.367188 -6.515625 8.648438 -6 8.828125 -5.40625 L 7.734375 -5.40625 C 7.523438 -5.988281 7.160156 -6.453125 6.640625 -6.796875 C 6.117188 -7.140625 5.519531 -7.3125 4.84375 -7.3125 C 4.238281 -7.3125 3.703125 -7.171875 3.234375 -6.890625 C 2.765625 -6.617188 2.394531 -6.238281 2.125 -5.75 C 1.863281 -5.269531 1.734375 -4.71875 1.734375 -4.09375 C 1.734375 -3.457031 1.863281 -2.894531 2.125 -2.40625 C 2.394531 -1.925781 2.765625 -1.550781 3.234375 -1.28125 C 3.703125 -1.007812 4.238281 -0.875 4.84375 -0.875 C 5.539062 -0.875 6.15625 -1.050781 6.6875 -1.40625 C 7.226562 -1.769531 7.601562 -2.257812 7.8125 -2.875 L 8.90625 -2.875 C 8.738281 -2.269531 8.457031 -1.738281 8.0625 -1.28125 C 7.675781 -0.832031 7.203125 -0.476562 6.640625 -0.21875 C 6.085938 0.03125 5.476562 0.15625 4.8125 0.15625 Z M 4.8125 0.15625 "/></g></g></g><g fill="#ffffff" fill-opacity="1"><g transform="translate(247.348108, 274.382645)"><g><path d="M 1.1875 0 L 1.1875 -8.1875 L 6.15625 -8.1875 L 6.15625 -7.21875 L 2.21875 -7.21875 L 2.21875 -4.640625 L 5.859375 -4.640625 L 5.859375 -3.6875 L 2.21875 -3.6875 L 2.21875 -0.953125 L 6.28125 -0.953125 L 6.28125 0 Z M 1.1875 0 "/></g></g></g></svg>